{"accessors" : [{"bufferView" : 0, "byteOffset" : 0, "componentType" : 5123, "count" : 3486, "type" : "SCALAR", "max" : [3485], "min" : [0]}, {"bufferView" : 1, "byteOffset" : 0, "componentType" : 5126, "count" : 3486, "type" : "VEC3", "max" : [56.79582214355469, 168.99720764160156, 27.71573829650879], "min" : [-56.195030212402344, -0.9330599904060364, -31.393447875976562], "name" : "POSITION"}, {"bufferView" : 1, "byteOffset" : 12, "componentType" : 5126, "count" : 3486, "type" : "VEC3", "max" : [0.9978613257408142, 0.9978538155555725, 0.9985074996948242], "min" : [-0.9978612661361694, -0.9993966817855835, -0.9990972280502319], "name" : "NORMAL"}, {"bufferView" : 1, "byteOffset" : 24, "componentType" : 5126, "count" : 3486, "type" : "VEC2", "max" : [1.996196985244751, 0.9954050183296204], "min" : [0.008515999652445316, 0.0028846263885498047], "name" : "TEXCOORD_0"}, {"bufferView" : 0, "byteOffset" : 6972, "componentType" : 5123, "count" : 2496, "type" : "SCALAR", "max" : [2495], "min" : [0]}, {"bufferView" : 2, "byteOffset" : 0, "componentType" : 5126, "count" : 2496, "type" : "VEC3", "max" : [11.305481910705566, 176.86744689941406, 13.460262298583984], "min" : [-11.305481910705566, 155.22836303710938, -11.625930786132812], "name" : "POSITION"}, {"bufferView" : 2, "byteOffset" : 12, "componentType" : 5126, "count" : 2496, "type" : "VEC3", "max" : [0.9993703961372375, 0.9704900979995728, 0.9981641173362732], "min" : [-0.9993703961372375, -0.9749107956886292, -0.9953845739364624], "name" : "NORMAL"}, {"bufferView" : 2, "byteOffset" : 24, "componentType" : 5126, "count" : 2496, "type" : "VEC2", "max" : [1.8501640558242798, 0.9877529740333557], "min" : [0.010544000193476677, 0.008974015712738037], "name" : "TEXCOORD_0"}, {"bufferView" : 0, "byteOffset" : 11964, "componentType" : 5123, "count" : 132, "type" : "SCALAR", "max" : [131], "min" : [0]}, {"bufferView" : 3, "byteOffset" : 0, "componentType" : 5126, "count" : 132, "type" : "VEC3", "max" : [12.489249229431152, 162.82920837402344, 0.005942999850958586], "min" : [-12.489272117614746, 159.9021453857422, -2.958915948867798], "name" : "POSITION"}, {"bufferView" : 3, "byteOffset" : 12, "componentType" : 5126, "count" : 132, "type" : "VEC3", "max" : [0.7868092060089111, 0.9793674349784851, 0.7417289018630981], "min" : [-0.7868073582649231, -0.9958171844482422, -0.7003939151763916], "name" : "NORMAL"}, {"bufferView" : 3, "byteOffset" : 24, "componentType" : 5126, "count" : 132, "type" : "VEC2", "max" : [3.179141044616699, 0.8585020303726196], "min" : [0.13739700615406036, 0.12897998094558716], "name" : "TEXCOORD_0"}, {"bufferView" : 0, "byteOffset" : 12228, "componentType" : 5123, "count" : 2388, "type" : "SCALAR", "max" : [2387], "min" : [0]}, {"bufferView" : 4, "byteOffset" : 0, "componentType" : 5126, "count" : 2388, "type" : "VEC3", "max" : [73.02490997314453, 132.4916229248047, 34.2332649230957], "min" : [-73.02490997314453, 56.389495849609375, -26.296417236328125], "name" : "POSITION"}, {"bufferView" : 4, "byteOffset" : 12, "componentType" : 5126, "count" : 2388, "type" : "VEC3", "max" : [0.9912113547325134, 0.9980692267417908, 0.9991710186004639], "min" : [-0.9991117119789124, -0.9946826696395874, -0.996296763420105], "name" : "NORMAL"}, {"bufferView" : 4, "byteOffset" : 24, "componentType" : 5126, "count" : 2388, "type" : "VEC2", "max" : [1.9968409538269043, 0.9951109886169434], "min" : [0.005429999902844429, 0.003809988498687744], "name" : "TEXCOORD_0"}, {"bufferView" : 0, "byteOffset" : 17004, "componentType" : 5123, "count" : 714, "type" : "SCALAR", "max" : [145], "min" : [0]}, {"bufferView" : 5, "byteOffset" : 0, "componentType" : 5126, "count" : 146, "type" : "VEC3", "max" : [69.7029037475586, 137.65606689453125, 17.490421295166016], "min" : [-69.7029037475586, 81.42350769042969, -21.07750129699707], "name" : "POSITION"}, {"bufferView" : 5, "byteOffset" : 12, "componentType" : 5126, "count" : 146, "type" : "VEC3", "max" : [0.9691139459609985, 0.6946746706962585, 0.9554386734962463], "min" : [-0.9691139459609985, -0.9988548159599304, -0.9858314990997314], "name" : "NORMAL"}, {"bufferView" : 5, "byteOffset" : 24, "componentType" : 5126, "count" : 146, "type" : "VEC2", "max" : [1.8092830181121826, 0.7950699925422668], "min" : [0.6722490191459656, 0.6836180090904236], "name" : "TEXCOORD_0"}, {"bufferView" : 0, "byteOffset" : 18432, "componentType" : 5123, "count" : 1812, "type" : "SCALAR", "max" : [1811], "min" : [0]}, {"bufferView" : 6, "byteOffset" : 0, "componentType" : 5126, "count" : 1812, "type" : "VEC3", "max" : [45.81095886230469, 118.81258392333984, 39.0649299621582], "min" : [-51.56094741821289, 41.58013153076172, -29.058839797973633], "name" : "POSITION"}, {"bufferView" : 6, "byteOffset" : 12, "componentType" : 5126, "count" : 1812, "type" : "VEC3", "max" : [0.9952695965766907, 1.0000042915344238, 0.998034656047821], "min" : [-1.000003457069397, -1.0000042915344238, -0.9711918830871582], "name" : "NORMAL"}, {"bufferView" : 6, "byteOffset" : 24, "componentType" : 5126, "count" : 1812, "type" : "VEC2", "max" : [5.415872097015381, 0.933443009853363], "min" : [0.008376999758183956, 0.0048149824142456055], "name" : "TEXCOORD_0"}, {"bufferView" : 0, "byteOffset" : 22056, "componentType" : 5123, "count" : 3360, "type" : "SCALAR", "max" : [3359], "min" : [0]}, {"bufferView" : 7, "byteOffset" : 0, "componentType" : 5126, "count" : 3360, "type" : "VEC3", "max" : [52.973731994628906, 106.79763793945312, 34.87093734741211], "min" : [-52.973731994628906, 61.25351333618164, -28.325408935546875], "name" : "POSITION"}, {"bufferView" : 7, "byteOffset" : 12, "componentType" : 5126, "count" : 3360, "type" : "VEC3", "max" : [0.999629557132721, 0.9926717281341553, 0.9945102334022522], "min" : [-0.9996334314346313, -0.9921321868896484, -0.9949456453323364], "name" : "NORMAL"}, {"bufferView" : 7, "byteOffset" : 24, "componentType" : 5126, "count" : 3360, "type" : "VEC2", "max" : [57.63425064086914, 0.9883909821510315], "min" : [0.009083000011742115, 0.17322897911071777], "name" : "TEXCOORD_0"}, {"bufferView" : 0, "byteOffset" : 28776, "componentType" : 5123, "count" : 852, "type" : "SCALAR", "max" : [851], "min" : [0]}, {"bufferView" : 8, "byteOffset" : 0, "componentType" : 5126, "count" : 852, "type" : "VEC3", "max" : [11.069488525390625, 11.045530319213867, -0.0009159999899566174], "min" : [-10.984151840209961, -11.008110046386719, -125.08038330078125], "name" : "POSITION"}, {"bufferView" : 8, "byteOffset" : 12, "componentType" : 5126, "count" : 852, "type" : "VEC3", "max" : [0.9982987642288208, 0.9997940063476562, 1.0000042915344238], "min" : [-0.9999215602874756, -0.999794065952301, -1.0000042915344238], "name" : "NORMAL"}, {"bufferView" : 8, "byteOffset" : 24, "componentType" : 5126, "count" : 852, "type" : "VEC2", "max" : [0.9936789870262146, 0.987712025642395], "min" : [0.014365999959409237, 0.00916600227355957], "name" : "TEXCOORD_0"}, {"bufferView" : 0, "byteOffset" : 30480, "componentType" : 5123, "count" : 852, "type" : "SCALAR", "max" : [851], "min" : [0]}, {"bufferView" : 9, "byteOffset" : 0, "componentType" : 5126, "count" : 852, "type" : "VEC3", "max" : [11.069488525390625, 11.0081205368042, 125.08038330078125], "min" : [-10.984151840209961, -11.045519828796387, 0.000914999982342124], "name" : "POSITION"}, {"bufferView" : 9, "byteOffset" : 12, "componentType" : 5126, "count" : 852, "type" : "VEC3", "max" : [0.9982987642288208, 0.999794065952301, 1.0000042915344238], "min" : [-0.9999215602874756, -0.9997940063476562, -1.0000042915344238], "name" : "NORMAL"}, {"bufferView" : 9, "byteOffset" : 24, "componentType" : 5126, "count" : 852, "type" : "VEC2", "max" : [1.9936800003051758, 0.987712025642395], "min" : [1.0143660306930542, 0.00916600227355957], "name" : "TEXCOORD_0"}, {"bufferView" : 0, "byteOffset" : 32184, "componentType" : 5123, "count" : 900, "type" : "SCALAR", "max" : [899], "min" : [0]}, {"bufferView" : 10, "byteOffset" : 0, "componentType" : 5126, "count" : 900, "type" : "VEC3", "max" : [26.050352096557617, 165.0413818359375, 31.063966751098633], "min" : [-25.840465545654297, 103.34823608398438, -41.544918060302734], "name" : "POSITION"}, {"bufferView" : 10, "byteOffset" : 12, "componentType" : 5126, "count" : 900, "type" : "VEC3", "max" : [1.0000042915344238, 0.9999721050262451, 0.999946117401123], "min" : [-0.9999871253967285, -0.9996054768562317, -0.9999356865882874], "name" : "NORMAL"}, {"bufferView" : 10, "byteOffset" : 24, "componentType" : 5126, "count" : 900, "type" : "VEC2", "max" : [0.9849420189857483, 0.9901210069656372], "min" : [0.009633000008761883, 0.012908995151519775], "name" : "TEXCOORD_0"}, {"bufferView" : 0, "byteOffset" : 33984, "componentType" : 5123, "count" : 414, "type" : "SCALAR", "max" : [413], "min" : [0]}, {"bufferView" : 11, "byteOffset" : 0, "componentType" : 5126, "count" : 414, "type" : "VEC3", "max" : [37.5953254699707, 161.05921936035156, 29.30755615234375], "min" : [-6.369433879852295, 104.03239440917969, -34.07964324951172], "name" : "POSITION"}, {"bufferView" : 11, "byteOffset" : 12, "componentType" : 5126, "count" : 414, "type" : "VEC3", "max" : [0.999854326248169, 0.9602136015892029, 0.9731252193450928], "min" : [-0.9888436198234558, -0.9322546720504761, -0.9977706074714661], "name" : "NORMAL"}, {"bufferView" : 11, "byteOffset" : 24, "componentType" : 5126, "count" : 414, "type" : "VEC2", "max" : [0.988385021686554, 0.9264199733734131], "min" : [0.31960099935531616, 0.08896899223327637], "name" : "TEXCOORD_0"}], "asset" : {"generator" : "Aspose.3D 24.6.0", "version" : "2.0"}, "buffers" : [{"uri" : "buffer.bin", "byteLength" : 573676}], "bufferViews" : [{"buffer" : 0, "byteOffset" : 0, "byteLength" : 34812, "target" : 34963}, {"buffer" : 0, "byteOffset" : 34816, "byteLength" : 111552, "byteStride" : 32, "target" : 34962}, {"buffer" : 0, "byteOffset" : 146372, "byteLength" : 79872, "byteStride" : 32, "target" : 34962}, {"buffer" : 0, "byteOffset" : 226248, "byteLength" : 4224, "byteStride" : 32, "target" : 34962}, {"buffer" : 0, "byteOffset" : 230476, "byteLength" : 76416, "byteStride" : 32, "target" : 34962}, {"buffer" : 0, "byteOffset" : 306896, "byteLength" : 4672, "byteStride" : 32, "target" : 34962}, {"buffer" : 0, "byteOffset" : 311572, "byteLength" : 57984, "byteStride" : 32, "target" : 34962}, {"buffer" : 0, "byteOffset" : 369560, "byteLength" : 107520, "byteStride" : 32, "target" : 34962}, {"buffer" : 0, "byteOffset" : 477084, "byteLength" : 27264, "byteStride" : 32, "target" : 34962}, {"buffer" : 0, "byteOffset" : 504352, "byteLength" : 27264, "byteStride" : 32, "target" : 34962}, {"buffer" : 0, "byteOffset" : 531620, "byteLength" : 28800, "byteStride" : 32, "target" : 34962}, {"buffer" : 0, "byteOffset" : 560424, "byteLength" : 13248, "byteStride" : 32, "target" : 34962}], "images" : [{"uri" : "materials\\base\\__earth_spirit_base_normal.tga"}, {"uri" : "materials\\base\\__earth_spirit_base_color.tga"}, {"uri" : "materials\\earth_spirit_head_normal.tga"}, {"uri" : "materials\\earth_spirit_head_color.tga"}, {"uri" : "materials\\earth_spirit_arms_normal.tga"}, {"uri" : "materials\\earth_spirit_arms_color.tga"}, {"uri" : "materials\\earth_spirit_belt_normal.tga"}, {"uri" : "materials\\earth_spirit_belt_color.tga"}, {"uri" : "materials\\earth_spirit_weapon_normal.tga"}, {"uri" : "materials\\earth_spirit_weapon_color.tga"}, {"uri" : "materials\\earth_spirit_neck_normal.tga"}, {"uri" : "materials\\earth_spirit_neck_color.tga"}], "materials" : [{"name" : "blinn2", "pbrMetallicRoughness" : {"baseColorFactor" : [1, 1, 1, 1], "baseColorTexture" : {"index" : 1, "texCoord" : 0}, "metallicFactor" : 1, "roughnessFactor" : 1}, "normalTexture" : {"index" : 0, "texCoord" : 0, "scale" : 1}, "emissiveFactor" : [0, 0, 0], "alphaMode" : "OPAQUE", "doubleSided" : false}, {"name" : "blinn4", "pbrMetallicRoughness" : {"baseColorFactor" : [1, 1, 1, 1], "baseColorTexture" : {"index" : 3, "texCoord" : 0}, "metallicFactor" : 1, "roughnessFactor" : 1}, "normalTexture" : {"index" : 2, "texCoord" : 0, "scale" : 1}, "emissiveFactor" : [0, 0, 0], "alphaMode" : "OPAQUE", "doubleSided" : false}, {"name" : "blinn1", "pbrMetallicRoughness" : {"baseColorFactor" : [1, 1, 1, 1], "baseColorTexture" : {"index" : 5, "texCoord" : 0}, "metallicFactor" : 1, "roughnessFactor" : 1}, "normalTexture" : {"index" : 4, "texCoord" : 0, "scale" : 1}, "emissiveFactor" : [0, 0, 0], "alphaMode" : "OPAQUE", "doubleSided" : false}, {"name" : "blinn3", "pbrMetallicRoughness" : {"baseColorFactor" : [1, 1, 1, 1], "baseColorTexture" : {"index" : 7, "texCoord" : 0}, "metallicFactor" : 1, "roughnessFactor" : 1}, "normalTexture" : {"index" : 6, "texCoord" : 0, "scale" : 1}, "emissiveFactor" : [0, 0, 0], "alphaMode" : "OPAQUE", "doubleSided" : false}, {"name" : "blinn6", "pbrMetallicRoughness" : {"baseColorFactor" : [1, 1, 1, 1], "baseColorTexture" : {"index" : 9, "texCoord" : 0}, "metallicFactor" : 1, "roughnessFactor" : 1}, "normalTexture" : {"index" : 8, "texCoord" : 0, "scale" : 1}, "emissiveFactor" : [0, 0, 0], "alphaMode" : "OPAQUE", "doubleSided" : false}, {"name" : "blinn5", "pbrMetallicRoughness" : {"baseColorFactor" : [1, 1, 1, 1], "baseColorTexture" : {"index" : 11, "texCoord" : 0}, "metallicFactor" : 1, "roughnessFactor" : 1}, "normalTexture" : {"index" : 10, "texCoord" : 0, "scale" : 1}, "emissiveFactor" : [0, 0, 0], "alphaMode" : "OPAQUE", "doubleSided" : false}], "meshes" : [{"primitives" : [{"attributes" : {"POSITION" : 1, "NORMAL" : 2, "TEXCOORD_0" : 3}, "indices" : 0, "material" : 0, "mode" : 4}], "name" : ""}, {"primitives" : [{"attributes" : {"POSITION" : 5, "NORMAL" : 6, "TEXCOORD_0" : 7}, "indices" : 4, "material" : 1, "mode" : 4}], "name" : ""}, {"primitives" : [{"attributes" : {"POSITION" : 9, "NORMAL" : 10, "TEXCOORD_0" : 11}, "indices" : 8, "material" : 1, "mode" : 4}], "name" : ""}, {"primitives" : [{"attributes" : {"POSITION" : 13, "NORMAL" : 14, "TEXCOORD_0" : 15}, "indices" : 12, "material" : 2, "mode" : 4}], "name" : ""}, {"primitives" : [{"attributes" : {"POSITION" : 17, "NORMAL" : 18, "TEXCOORD_0" : 19}, "indices" : 16, "material" : 2, "mode" : 4}], "name" : ""}, {"primitives" : [{"attributes" : {"POSITION" : 21, "NORMAL" : 22, "TEXCOORD_0" : 23}, "indices" : 20, "material" : 3, "mode" : 4}], "name" : ""}, {"primitives" : [{"attributes" : {"POSITION" : 25, "NORMAL" : 26, "TEXCOORD_0" : 27}, "indices" : 24, "material" : 3, "mode" : 4}], "name" : ""}, {"primitives" : [{"attributes" : {"POSITION" : 29, "NORMAL" : 30, "TEXCOORD_0" : 31}, "indices" : 28, "material" : 4, "mode" : 4}], "name" : ""}, {"primitives" : [{"attributes" : {"POSITION" : 33, "NORMAL" : 34, "TEXCOORD_0" : 35}, "indices" : 32, "material" : 4, "mode" : 4}], "name" : ""}, {"primitives" : [{"attributes" : {"POSITION" : 37, "NORMAL" : 38, "TEXCOORD_0" : 39}, "indices" : 36, "material" : 5, "mode" : 4}], "name" : ""}, {"primitives" : [{"attributes" : {"POSITION" : 41, "NORMAL" : 42, "TEXCOORD_0" : 43}, "indices" : 40, "material" : 5, "mode" : 4}], "name" : ""}], "nodes" : [{"mesh" : 0, "name" : "earth_spirit_base"}, {"mesh" : 1, "name" : "earth_spirit_base_face"}, {"mesh" : 2, "name" : "earth_spirit_head"}, {"mesh" : 3, "name" : "earth_spirit_arms"}, {"mesh" : 4, "name" : "earth_spirit_arms_core"}, {"mesh" : 5, "name" : "earth_spirit_belt"}, {"mesh" : 6, "name" : "earth_spirit_belt_chains"}, {"mesh" : 7, "name" : "earth_spirit_weapon"}, {"mesh" : 8, "name" : "earth_spirit_weapon_top"}, {"mesh" : 9, "name" : "earth_spirit_neck"}, {"mesh" : 10, "name" : "earth_spirit_neck_robe"}], "samplers" : [{"magFilter" : 9729, "minFilter" : 9729, "wrapS" : 10497, "wrapT" : 10497}, {"magFilter" : 9729, "minFilter" : 9729, "wrapS" : 10497, "wrapT" : 10497}, {"magFilter" : 9729, "minFilter" : 9729, "wrapS" : 10497, "wrapT" : 10497}, {"magFilter" : 9729, "minFilter" : 9729, "wrapS" : 10497, "wrapT" : 10497}, {"magFilter" : 9729, "minFilter" : 9729, "wrapS" : 10497, "wrapT" : 10497}, {"magFilter" : 9729, "minFilter" : 9729, "wrapS" : 10497, "wrapT" : 10497}, {"magFilter" : 9729, "minFilter" : 9729, "wrapS" : 10497, "wrapT" : 10497}, {"magFilter" : 9729, "minFilter" : 9729, "wrapS" : 10497, "wrapT" : 10497}, {"magFilter" : 9729, "minFilter" : 9729, "wrapS" : 10497, "wrapT" : 10497}, {"magFilter" : 9729, "minFilter" : 9729, "wrapS" : 10497, "wrapT" : 10497}, {"magFilter" : 9729, "minFilter" : 9729, "wrapS" : 10497, "wrapT" : 10497}, {"magFilter" : 9729, "minFilter" : 9729, "wrapS" : 10497, "wrapT" : 10497}], "scene" : 0, "scenes" : [{"nodes" : [0, 1, 2, 3, 4, 5, 6, 7, 8, 9, 10]}], "textures" : [{"sampler" : 0, "source" : 0, "name" : "file5"}, {"sampler" : 1, "source" : 1, "name" : "file4"}, {"sampler" : 2, "source" : 2, "name" : "file11"}, {"sampler" : 3, "source" : 3, "name" : "file10"}, {"sampler" : 4, "source" : 4, "name" : "file2"}, {"sampler" : 5, "source" : 5, "name" : "file1"}, {"sampler" : 6, "source" : 6, "name" : "file8"}, {"sampler" : 7, "source" : 7, "name" : "file7"}, {"sampler" : 8, "source" : 8, "name" : "file17"}, {"sampler" : 9, "source" : 9, "name" : "file16"}, {"sampler" : 10, "source" : 10, "name" : "file14"}, {"sampler" : 11, "source" : 11, "name" : "file13"}]}